<?xml version="1.0" standalone="no"?>
<!DOCTYPE svg PUBLIC "-//W3C//DTD SVG 20010904//EN"
 "http://www.w3.org/TR/2001/REC-SVG-20010904/DTD/svg10.dtd">
<svg version="1.0" xmlns="http://www.w3.org/2000/svg"
 width="350.000000pt" height="350.000000pt" viewBox="0 0 350.000000 350.000000"
 preserveAspectRatio="xMidYMid meet">
<metadata>
Created by potrace 1.11, written by Peter Selinger 2001-2013
</metadata>
<g transform="translate(0.000000,350.000000) scale(0.100000,-0.100000)"
fill="#000000" stroke="none">
<path d="M2530 2565 c-140 -63 -259 -116 -264 -118 -5 -2 10 -40 34 -85 36
-69 46 -82 62 -76 11 3 94 37 186 74 l167 68 3 -729 2 -729 100 0 100 0 -2
853 -3 852 -65 3 c-64 2 -71 0 -320 -113z"/>
<path d="M812 2450 c-179 -47 -339 -177 -419 -340 -71 -144 -88 -227 -87 -420
1 -195 17 -271 90 -419 109 -220 309 -341 565 -341 160 0 276 31 396 106 139
87 253 249 300 429 27 106 25 399 -5 510 -68 253 -225 417 -456 475 -106 27
-281 27 -384 0z m379 -187 c83 -38 139 -88 184 -164 97 -159 130 -407 80 -604
-37 -146 -140 -291 -243 -344 -96 -49 -252 -66 -357 -37 -162 43 -272 168
-326 373 -16 59 -21 111 -22 213 -1 154 12 223 68 336 61 124 142 199 264 241
56 20 82 23 176 21 99 -3 117 -6 176 -35z"/>
<path d="M1944 1246 c-69 -30 -99 -115 -66 -190 27 -59 70 -86 139 -86 44 0
58 5 86 30 45 39 61 79 54 136 -11 97 -117 152 -213 110z"/>
</g>
</svg>
